# xmcd
#
# Track frame offsets:
#	183
#	13100
#	23918
#	34708
#	47438
#	58003
#	70780
#	84975
#	100275
#	109518
#	125845
#	145090
#	156835
#	167083
#	177140
#	188980
#	200330
#	211355
#	223668
#	247155
#	271618
#	281635
#	296430
#	306133
#	324993
#
# Disc length: 4529 seconds
#
# Revision: 1
# Processed by: cddbd v1.5.2PL0 Copyright (c) Steve Scherf et al.
# Submitted via: EZCDAudioConverter 7.0.0.1
#
DISCID=6811af19
DTITLE=J.J. Cale - Best of J.J. Cale
DYEAR=1900
DGENRE=Blues
TTITLE0=Cocaine
TTITLE1=Crazy Mama
TTITLE2=After Midnight
TTITLE3=Lies
TTITLE4=Carry On
TTITLE5=City Girls
TTITLE6=Don't Wait
TTITLE7=Magnolia
TTITLE8=Devil In Disguise
TTITLE9=Sensitive Kind
TTITLE10=Money Talks
TTITLE11=Call Me The Breeze
TTITLE12=Cajun Moon
TTITLE13=Don't Cry Sister
TTITLE14=Woman I Love
TTITLE15=Clyde
TTITLE16=Nowhere To Run
TTITLE17=Bringing It Back
TTITLE18=Pack My Jack
TTITLE19=Cloudy Day
TTITLE20=Love Has Been Gone
TTITLE21=Right Down Here
TTITLE22=Everlovin' Woman
TTITLE23=Friday
TTITLE24=Mona
EXTD=
EXTT0=
EXTT1=
EXTT2=
EXTT3=
EXTT4=
EXTT5=
EXTT6=
EXTT7=
EXTT8=
EXTT9=
EXTT10=
EXTT11=
EXTT12=
EXTT13=
EXTT14=
EXTT15=
EXTT16=
EXTT17=
EXTT18=
EXTT19=
EXTT20=
EXTT21=
EXTT22=
EXTT23=
EXTT24=
PLAYORDER=
